<?xml version="1.0" standalone="no"?>
<!DOCTYPE svg PUBLIC "-//W3C//DTD SVG 20010904//EN"
 "http://www.w3.org/TR/2001/REC-SVG-20010904/DTD/svg10.dtd">
<svg version="1.0" xmlns="http://www.w3.org/2000/svg"
 width="218.000000pt" height="218.000000pt" viewBox="0 0 218.000000 218.000000"
 preserveAspectRatio="xMidYMid meet">
<metadata>
Created by potrace 1.14, written by Peter Selinger 2001-2017
</metadata>
<g transform="translate(0.000000,218.000000) scale(0.100000,-0.100000)"
fill="#000000" stroke="none">
<path d="M0 1090 l0 -1090 1090 0 1090 0 0 1090 0 1090 -1090 0 -1090 0 0
-1090z m1286 642 c136 -44 245 -115 327 -210 47 -56 107 -163 107 -193 0 -10
5 -21 10 -24 6 -3 10 -16 10 -29 0 -12 5 -27 11 -33 20 -20 6 -277 -19 -350
-58 -171 -183 -313 -342 -390 -70 -33 -203 -63 -283 -63 -88 0 -233 36 -302
74 -154 86 -281 230 -315 358 -7 23 -17 53 -22 64 -16 34 -15 261 1 324 8 30
34 95 58 144 85 169 240 291 423 331 41 9 80 19 85 21 26 10 196 -7 251 -24z"/>
<path d="M1040 1659 c-125 -13 -233 -65 -327 -159 -120 -120 -181 -275 -169
-432 7 -90 16 -137 27 -144 5 -3 9 -13 9 -23 0 -72 154 -248 262 -299 109 -53
156 -64 258 -65 102 -1 168 12 240 46 360 173 444 634 165 913 -128 127 -283
182 -465 163z"/>
</g>
</svg>
